<svg width="34" height="44" viewBox="0 0 34 44" fill="none" xmlns="http://www.w3.org/2000/svg">
<g clip-path="url(#clip0_11_89)">
<path d="M15 20V14H19V20H24V12L17 4.5L10 12V20H15Z" fill="black"/>
</g>
<path d="M1.06623 41H2.38299V37.1946H6.73384V41H8.05487V32.2727H6.73384V36.0653H2.38299V32.2727H1.06623V41ZM12.6273 41.1321C14.4725 41.1321 15.6784 39.7812 15.6784 37.7571C15.6784 35.7202 14.4725 34.3693 12.6273 34.3693C10.7821 34.3693 9.57617 35.7202 9.57617 37.7571C9.57617 39.7812 10.7821 41.1321 12.6273 41.1321ZM12.6316 40.0625C11.4256 40.0625 10.8631 39.0099 10.8631 37.7528C10.8631 36.5 11.4256 35.4347 12.6316 35.4347C13.829 35.4347 14.3915 36.5 14.3915 37.7528C14.3915 39.0099 13.829 40.0625 12.6316 40.0625ZM17.1007 41H18.3748V36.9645C18.3748 36.0824 18.9927 35.4688 19.7172 35.4688C20.4245 35.4688 20.9146 35.9375 20.9146 36.6491V41H22.1845V36.8281C22.1845 36.0398 22.666 35.4688 23.497 35.4688C24.1703 35.4688 24.7243 35.8438 24.7243 36.7301V41H25.9984V36.6108C25.9984 35.1151 25.1632 34.3693 23.9785 34.3693C23.0368 34.3693 22.3294 34.821 22.014 35.5199H21.9458C21.6603 34.804 21.0595 34.3693 20.1859 34.3693C19.3208 34.3693 18.6774 34.7997 18.4047 35.5199H18.3237V34.4545H17.1007V41ZM30.5272 41.1321C31.9547 41.1321 32.9647 40.429 33.2544 39.3636L32.0485 39.1463C31.8184 39.7642 31.2644 40.0795 30.54 40.0795C29.449 40.0795 28.7161 39.3722 28.682 38.1108H33.3354V37.6591C33.3354 35.294 31.9206 34.3693 30.4377 34.3693C28.6138 34.3693 27.4121 35.7585 27.4121 37.7699C27.4121 39.8026 28.5968 41.1321 30.5272 41.1321ZM28.6863 37.1562C28.7374 36.2273 29.4107 35.4219 30.4462 35.4219C31.4348 35.4219 32.0826 36.1548 32.0868 37.1562H28.6863Z" fill="black"/>
<defs>
<clipPath id="clip0_11_89">
<rect width="24" height="24" fill="white" transform="translate(5)"/>
</clipPath>
</defs>
</svg>
