<svg width="73" height="44" viewBox="0 0 73 44" fill="none" xmlns="http://www.w3.org/2000/svg">
<g clip-path="url(#clip0_11_102)">
<path fill-rule="evenodd" clip-rule="evenodd" d="M28 7H44V6H28V7ZM30 3H42V4H30V3Z" fill="black"/>
<path d="M40 15L34 11.73V18.26L40 15Z" fill="black"/>
<path fill-rule="evenodd" clip-rule="evenodd" d="M45 21H27V9H45V21ZM44 10H28V20H44V10Z" fill="black"/>
</g>
<path d="M5.98438 34.5653H7.25426C7.21591 33.1676 5.98011 32.1534 4.20739 32.1534C2.45597 32.1534 1.11364 33.1548 1.11364 34.6591C1.11364 35.8736 1.98295 36.5852 3.38494 36.9645L4.41619 37.2457C5.34943 37.4929 6.0696 37.7997 6.0696 38.5753C6.0696 39.4276 5.25568 39.9901 4.13494 39.9901C3.12074 39.9901 2.27699 39.5384 2.20028 38.5881H0.879261C0.964489 40.169 2.1875 41.1449 4.14347 41.1449C6.19318 41.1449 7.37358 40.0668 7.37358 38.5881C7.37358 37.0156 5.97159 36.4062 4.86364 36.1335L4.01136 35.9119C3.32955 35.7372 2.42188 35.4176 2.42614 34.5824C2.42614 33.8409 3.10369 33.2912 4.17756 33.2912C5.17898 33.2912 5.89062 33.7599 5.98438 34.5653ZM12.9911 38.2855C12.9954 39.3977 12.1687 39.9261 11.4528 39.9261C10.6644 39.9261 10.119 39.3551 10.119 38.4645V34.4545H8.84482V38.6179C8.84482 40.2415 9.73544 41.0852 10.9925 41.0852C11.9769 41.0852 12.646 40.5653 12.9485 39.8665H13.0167V41H14.2695V34.4545H12.9911V38.2855ZM16.0838 41H17.3281V39.9815H17.4347C17.6648 40.3991 18.1335 41.1278 19.3267 41.1278C20.9119 41.1278 22.0625 39.858 22.0625 37.7401C22.0625 35.6179 20.8949 34.3693 19.3139 34.3693C18.0994 34.3693 17.6605 35.1108 17.4347 35.5156H17.358V32.2727H16.0838V41ZM17.3324 37.7273C17.3324 36.3594 17.929 35.4517 19.0412 35.4517C20.196 35.4517 20.7756 36.4276 20.7756 37.7273C20.7756 39.0398 20.179 40.0412 19.0412 40.0412C17.946 40.0412 17.3324 39.1037 17.3324 37.7273ZM28.3981 36.0526C28.1339 35.0341 27.337 34.3693 25.9222 34.3693C24.4435 34.3693 23.3952 35.1491 23.3952 36.3082C23.3952 37.2372 23.9577 37.8551 25.185 38.1278L26.293 38.3707C26.9237 38.5114 27.2177 38.7926 27.2177 39.2017C27.2177 39.7088 26.6765 40.1051 25.8413 40.1051C25.0785 40.1051 24.5884 39.777 24.435 39.1335L23.2035 39.321C23.4165 40.4801 24.3796 41.1321 25.8498 41.1321C27.4308 41.1321 28.5259 40.2926 28.5259 39.108C28.5259 38.1832 27.9379 37.6122 26.7362 37.3352L25.6964 37.0966C24.9762 36.9261 24.6651 36.6832 24.6694 36.2401C24.6651 35.7372 25.2106 35.3793 25.935 35.3793C26.7276 35.3793 27.0941 35.8182 27.2433 36.2571L28.3981 36.0526ZM32.6839 41.1321C34.2308 41.1321 35.2322 40.2031 35.3729 38.929H34.1328C33.9709 39.6364 33.4212 40.054 32.6925 40.054C31.6143 40.054 30.9197 39.1548 30.9197 37.7273C30.9197 36.3253 31.6271 35.4432 32.6925 35.4432C33.5021 35.4432 33.9964 35.9545 34.1328 36.5682H35.3729C35.2365 35.2472 34.1584 34.3693 32.6712 34.3693C30.826 34.3693 29.6328 35.7585 29.6328 37.7571C29.6328 39.7301 30.7834 41.1321 32.6839 41.1321ZM36.7354 41H38.0096V37.0028C38.0096 36.1463 38.6701 35.5284 39.5735 35.5284C39.8377 35.5284 40.136 35.5753 40.2383 35.6051V34.3864C40.1104 34.3693 39.859 34.3565 39.6971 34.3565C38.93 34.3565 38.2738 34.7912 38.0352 35.4943H37.967V34.4545H36.7354V41ZM41.3409 41H42.6151V34.4545H41.3409V41ZM41.9844 33.4446C42.4233 33.4446 42.7898 33.1037 42.7898 32.6861C42.7898 32.2685 42.4233 31.9233 41.9844 31.9233C41.5412 31.9233 41.179 32.2685 41.179 32.6861C41.179 33.1037 41.5412 33.4446 41.9844 33.4446ZM44.3292 43.4545H45.6033V39.9815H45.68C45.9102 40.3991 46.3789 41.1278 47.5721 41.1278C49.1573 41.1278 50.3079 39.858 50.3079 37.7401C50.3079 35.6179 49.1403 34.3693 47.5593 34.3693C46.3448 34.3693 45.9059 35.1108 45.68 35.5156H45.5735V34.4545H44.3292V43.4545ZM45.5778 37.7273C45.5778 36.3594 46.1744 35.4517 47.2866 35.4517C48.4414 35.4517 49.021 36.4276 49.021 37.7273C49.021 39.0398 48.4244 40.0412 47.2866 40.0412C46.1914 40.0412 45.5778 39.1037 45.5778 37.7273ZM54.7908 34.4545H53.4485V32.8864H52.1744V34.4545H51.2156V35.4773H52.1744V39.3423C52.1701 40.5312 53.0778 41.1065 54.0835 41.0852C54.4883 41.081 54.761 41.0043 54.9102 40.9489L54.68 39.8963C54.5948 39.9134 54.4371 39.9517 54.2326 39.9517C53.8192 39.9517 53.4485 39.8153 53.4485 39.0781V35.4773H54.7908V34.4545ZM56.2003 41H57.4744V34.4545H56.2003V41ZM56.8438 33.4446C57.2827 33.4446 57.6491 33.1037 57.6491 32.6861C57.6491 32.2685 57.2827 31.9233 56.8438 31.9233C56.4006 31.9233 56.0384 32.2685 56.0384 32.6861C56.0384 33.1037 56.4006 33.4446 56.8438 33.4446ZM61.9457 41.1321C63.7908 41.1321 64.9968 39.7812 64.9968 37.7571C64.9968 35.7202 63.7908 34.3693 61.9457 34.3693C60.1005 34.3693 58.8945 35.7202 58.8945 37.7571C58.8945 39.7812 60.1005 41.1321 61.9457 41.1321ZM61.9499 40.0625C60.744 40.0625 60.1815 39.0099 60.1815 37.7528C60.1815 36.5 60.744 35.4347 61.9499 35.4347C63.1474 35.4347 63.7099 36.5 63.7099 37.7528C63.7099 39.0099 63.1474 40.0625 61.9499 40.0625ZM67.6932 37.1136C67.6932 36.0696 68.3324 35.473 69.2188 35.473C70.0838 35.473 70.608 36.0398 70.608 36.9901V41H71.8821V36.8366C71.8821 35.2173 70.9915 34.3693 69.6534 34.3693C68.669 34.3693 68.0256 34.8253 67.723 35.5199H67.642V34.4545H66.419V41H67.6932V37.1136Z" fill="black"/>
<defs>
<clipPath id="clip0_11_102">
<rect width="24" height="24" fill="white" transform="translate(24)"/>
</clipPath>
</defs>
</svg>
