<svg width="41" height="44" viewBox="0 0 41 44" fill="none" xmlns="http://www.w3.org/2000/svg">
<g clip-path="url(#clip0_11_107)">
<path d="M10.9999 6H9.99993L9.99993 20C9.99993 21.1 9.89993 21 10.9999 21H24.9999V20H10.9999V6ZM18.9999 14.5V5.5L24.9999 10L18.9999 14.5Z" fill="black"/>
<path fill-rule="evenodd" clip-rule="evenodd" d="M28.9999 2H12.9999V18H28.9999V2ZM13.9999 17V3H27.9999V17H13.9999Z" fill="black"/>
</g>
<path d="M1.32599 41H6.5973V39.8665H2.64276V32.2727H1.32599V41ZM7.99716 41H9.27131V34.4545H7.99716V41ZM8.64062 33.4446C9.07955 33.4446 9.44602 33.1037 9.44602 32.6861C9.44602 32.2685 9.07955 31.9233 8.64062 31.9233C8.19744 31.9233 7.83523 32.2685 7.83523 32.6861C7.83523 33.1037 8.19744 33.4446 8.64062 33.4446ZM11.0877 41H12.332V39.9815H12.4386C12.6687 40.3991 13.1374 41.1278 14.3306 41.1278C15.9158 41.1278 17.0664 39.858 17.0664 37.7401C17.0664 35.6179 15.8988 34.3693 14.3178 34.3693C13.1033 34.3693 12.6644 35.1108 12.4386 35.5156H12.3619V32.2727H11.0877V41ZM12.3363 37.7273C12.3363 36.3594 12.9329 35.4517 14.0451 35.4517C15.1999 35.4517 15.7795 36.4276 15.7795 37.7273C15.7795 39.0398 15.1829 40.0412 14.0451 40.0412C12.9499 40.0412 12.3363 39.1037 12.3363 37.7273ZM18.4972 41H19.7713V37.0028C19.7713 36.1463 20.4318 35.5284 21.3352 35.5284C21.5994 35.5284 21.8977 35.5753 22 35.6051V34.3864C21.8722 34.3693 21.6207 34.3565 21.4588 34.3565C20.6918 34.3565 20.0355 34.7912 19.7969 35.4943H19.7287V34.4545H18.4972V41ZM24.9489 41.1449C26.0312 41.1449 26.6406 40.5952 26.8835 40.1051H26.9347V41H28.179V36.6534C28.179 34.7486 26.679 34.3693 25.6392 34.3693C24.4545 34.3693 23.3636 34.8466 22.9375 36.0398L24.1349 36.3125C24.3224 35.848 24.7997 35.4006 25.6562 35.4006C26.4787 35.4006 26.9006 35.831 26.9006 36.5724V36.6023C26.9006 37.0668 26.4233 37.0582 25.2472 37.1946C24.0071 37.3395 22.7372 37.6634 22.7372 39.1506C22.7372 40.4375 23.7045 41.1449 24.9489 41.1449ZM25.2259 40.1222C24.5057 40.1222 23.9858 39.7983 23.9858 39.1676C23.9858 38.4858 24.5909 38.2429 25.3281 38.1449C25.7415 38.0895 26.7216 37.9787 26.9048 37.7955V38.6392C26.9048 39.4148 26.2869 40.1222 25.2259 40.1222ZM29.8761 41H31.1502V37.0028C31.1502 36.1463 31.8107 35.5284 32.7141 35.5284C32.9783 35.5284 33.2766 35.5753 33.3789 35.6051V34.3864C33.2511 34.3693 32.9996 34.3565 32.8377 34.3565C32.0707 34.3565 31.4144 34.7912 31.1758 35.4943H31.1076V34.4545H29.8761V41ZM35.4862 43.4545C36.5387 43.4545 37.2035 42.9048 37.5827 41.8736L40.2887 34.4673L38.9123 34.4545L37.2546 39.5341H37.1864L35.5288 34.4545H34.1651L36.56 41.0852L36.4023 41.5199C36.0785 42.3892 35.6225 42.4616 34.9237 42.2699L34.6168 43.3139C34.7702 43.3821 35.1026 43.4545 35.4862 43.4545Z" fill="black"/>
<defs>
<clipPath id="clip0_11_107">
<rect width="24" height="24" fill="white" transform="translate(7)"/>
</clipPath>
</defs>
</svg>
